<svg width="27" height="15" viewBox="0 0 27 15" fill="none" xmlns="http://www.w3.org/2000/svg">
<path d="M26 7.5C26 10 22 11 20 11" stroke="white"/>
<path d="M26 7.5C26 5 22 4 20 4" stroke="white"/>
<path d="M20 4H10H8C6 4 4 4.5 4 6" stroke="white"/>
<path d="M20 11H10H8C6 11 4 10.5 4 9" stroke="white"/>
<path d="M4 6L1 5V10L4 9M11 4C10.8333 3.16667 10.2 1 9 1C7.8 1 6.5 1 6 1L5.5 2.75L5 4.5" stroke="white"/>
<path d="M4 9L1 10V5L4 6M11 11C10.8333 11.8333 10.2 14 9 14C7.8 14 6.5 14 6 14L5 10.5" stroke="white"/>
<path d="M5.74076 1.77773C5.89149 1.32552 6.34047 1.04256 6.81347 1.10168L9.41465 1.42683C9.7758 1.47198 10.0839 1.70978 10.2191 2.04772L11 4H6.38743C5.70487 4 5.2229 3.3313 5.43874 2.68377L5.74076 1.77773Z" fill="white"/>
<path d="M5.74076 13.2223C5.89149 13.6745 6.34047 13.9574 6.81347 13.8983L9.41465 13.5732C9.7758 13.528 10.0839 13.2902 10.2191 12.9523L11 11H6.38743C5.70487 11 5.2229 11.6687 5.43874 12.3162L5.74076 13.2223Z" fill="white"/>
</svg>
