<svg width="55" height="65" viewBox="0 0 85 117" fill="none" xmlns="http://www.w3.org/2000/svg">
<path d="M48 28C48 28 73 25 79 28C85 31 81.5 75.5 79 79C76.5 82.5 48 79 48 79M48 28V79M48 28H32M48 79L56 114H43L40 82.5L28 114L16 108L32 75V41M32 28V41M32 28C32 28 4.50001 48.0001 3.00001 53C1.50001 58 6.00001 65.5 11 62C16 58.5 32 41 32 41" stroke="white" stroke-width="4"/>
<circle cx="40" cy="14" r="14" fill="white"/>
<path d="M54.7424 39.7905C54.5687 38.9368 54.607 38.1656 54.8573 37.4768C55.1083 36.7918 55.5306 36.2169 56.1241 35.7521C56.7221 35.2903 57.4535 34.9714 58.3183 34.7955C59.1869 34.6188 59.9874 34.6299 60.7198 34.8287C61.4559 35.0269 62.0714 35.3926 62.5665 35.9258C63.066 36.462 63.4007 37.1476 63.5706 37.9828C63.7118 38.6769 63.7087 39.3173 63.5614 39.9039C63.4185 40.4934 63.1475 40.995 62.7485 41.4087C62.3531 41.8215 61.8519 42.1129 61.2448 42.2828L60.8529 40.3564C61.249 40.1946 61.5546 39.9391 61.7696 39.59C61.9891 39.2439 62.0494 38.8276 61.9505 38.3414C61.8666 37.9294 61.6817 37.5901 61.3955 37.3236C61.1131 37.0564 60.7481 36.8775 60.3006 36.7868C59.8538 36.6999 59.3428 36.715 58.7675 36.832C58.1847 36.9506 57.701 37.1379 57.3163 37.394C56.9353 37.6493 56.6629 37.9541 56.4992 38.3082C56.3399 38.6653 56.3029 39.0536 56.3883 39.473C56.4487 39.77 56.5584 40.0241 56.7173 40.2352C56.8807 40.4494 57.0863 40.6144 57.334 40.7302C57.5818 40.846 57.8658 40.9022 58.1859 40.899L58.5779 42.8254C57.963 42.9002 57.3904 42.8312 56.86 42.6183C56.3334 42.4046 55.8843 42.0591 55.5127 41.582C55.1449 41.104 54.8881 40.5069 54.7424 39.7905ZM67.8043 44.7707L56.4016 47.0906L55.9915 45.0751L67.3943 42.7552L67.8043 44.7707ZM56.8232 49.1632L65.3753 47.4233L65.7854 49.4388L57.2333 51.1788L56.8232 49.1632ZM66.7952 48.1897C66.7303 47.8705 66.7802 47.5743 66.945 47.3011C67.1134 47.0272 67.348 46.8596 67.6486 46.7984C67.953 46.7365 68.2344 46.7991 68.4928 46.9862C68.7549 47.1725 68.9184 47.4253 68.9834 47.7445C69.0491 48.0674 68.9973 48.364 68.8281 48.6342C68.6633 48.9074 68.4288 49.075 68.1244 49.1369C67.8238 49.1981 67.5424 49.1355 67.2803 48.9491C67.0226 48.7658 66.8609 48.5126 66.7952 48.1897ZM58.2469 57.0157C58.0732 56.162 58.1115 55.3908 58.3618 54.7021C58.6128 54.0171 59.0351 53.4422 59.6286 52.9774C60.2266 52.5156 60.958 52.1967 61.8228 52.0207C62.6914 51.844 63.4919 51.8551 64.2243 52.054C64.9604 52.2521 65.5759 52.6178 66.071 53.151C66.5705 53.6872 66.9052 54.3729 67.0751 55.208C67.2163 55.9021 67.2132 56.5425 67.0659 57.1291C66.923 57.7187 66.652 58.2203 66.253 58.6339C65.8576 59.0468 65.3564 59.3381 64.7493 59.508L64.3574 57.5816C64.7535 57.4198 65.0591 57.1644 65.2741 56.8153C65.4936 56.4691 65.5539 56.0529 65.455 55.5666C65.3712 55.1546 65.1862 54.8154 64.9 54.5489C64.6176 54.2816 64.2526 54.1027 63.8051 54.0121C63.3584 53.9252 62.8473 53.9402 62.272 54.0573C61.6892 54.1758 61.2055 54.3632 60.8208 54.6192C60.4398 54.8746 60.1674 55.1793 60.0037 55.5335C59.8444 55.8906 59.8075 56.2788 59.8928 56.6983C59.9532 56.9952 60.0629 57.2493 60.2218 57.4605C60.3852 57.6746 60.5908 57.8396 60.8385 57.9554C61.0863 58.0712 61.3703 58.1275 61.6904 58.1242L62.0824 60.0506C61.4675 60.1255 60.8949 60.0564 60.3645 59.8435C59.8379 59.6298 59.3888 59.2844 59.0173 58.8072C58.6494 58.3293 58.3927 57.7321 58.2469 57.0157ZM62.5535 63.5917L64.9855 63.0911L65.0512 63.4141L69.1118 65.7885L69.5909 68.1437L64.6126 65.2196L64.5276 64.802L62.5535 63.5917ZM59.496 62.3004L70.8988 59.9804L71.3088 61.996L59.9061 64.3159L59.496 62.3004ZM60.588 67.6677L63.9135 64.092L65.6097 65.1617L61.0785 70.0785L60.588 67.6677ZM73.2167 71.3735L65.1284 72.8277L64.7636 71.0349L72.7783 69.2187L73.2167 71.3735ZM61.4717 72.6381C61.403 72.3004 61.4629 71.9867 61.6513 71.6971C61.8406 71.4112 62.1059 71.2335 62.4474 71.164C62.7815 71.0961 63.0914 71.1567 63.3773 71.3459C63.664 71.5389 63.8417 71.8042 63.9104 72.142C63.9776 72.4723 63.917 72.7823 63.7285 73.0719C63.5408 73.3652 63.2799 73.5459 62.9458 73.6138C62.7194 73.6599 62.5017 73.6443 62.2927 73.567C62.0844 73.4934 61.9058 73.3751 61.7566 73.2122C61.612 73.0522 61.517 72.8609 61.4717 72.6381Z" fill="white"/>
</svg>
