<svg width="171" height="171" viewBox="0 0 171 171" fill="none" xmlns="http://www.w3.org/2000/svg">
<circle cx="85.5" cy="85.5" r="85.5" fill="#519AF0"/>
<path d="M48.5 157.5C48.6667 155.5 49.6 151.5 52 151.5C54.4 151.5 54.3333 152.167 54 152.5C54 152.833 54.2 153.8 55 155C55.8 156.2 58 155.5 59 155C60 154.667 62.2 154.2 63 155C63.8 155.8 64.6667 156 65 156L69 156.5C70 156 72.6 155 75 155C77.4 155 77 156 76.5 156.5L80.5 157.5C80.6667 157 81.3 156 82.5 156C83.7 156 85.3333 155.333 86 155C86.6667 154.833 88.2 154.6 89 155L91 156C91.3333 156.333 92.2 157 93 157C93.8 157 90.3333 161 88.5 163L48.5 157.5Z" fill="white"/>
<path d="M89 155C88.2 154.6 86.6667 154.833 86 155C85.3333 155.333 83.7 156 82.5 156C81.3 156 80.6667 157 80.5 157.5L76.5 156.5C77 156 77.4 155 75 155C72.6 155 70 156 69 156.5L65 156C64.6667 156 63.8 155.8 63 155C62.2 154.2 60 154.667 59 155C58 155.5 55.8 156.2 55 155C54.2 153.8 54 152.833 54 152.5C54.3333 152.167 54.4 151.5 52 151.5C49.6 151.5 48.6667 155.5 48.5 157.5L88.5 163C90.3333 161 93.8 157 93 157C92.2 157 91.3333 156.333 91 156M89 155C89.8 155.4 90.6667 155.833 91 156M89 155L91 156" stroke="white" stroke-width="0.5"/>
<path d="M127 160C124.5 163 106.435 171 86 171C65.5655 171 50 164 42.5 159.5C42.5 154.806 79.0655 157 99.5 157C119.935 157 127 155.306 127 160Z" fill="white"/>
<path d="M118 157C117.833 156.5 117.1 155.3 115.5 154.5C113.9 153.7 111.167 153.167 110 153C109 152.833 106.8 152.8 106 154C105.2 155.2 103.667 155.167 103 155C102.333 154.833 100.8 154.8 100 156C99.2 157.2 98.3333 156.5 98 156C97.6667 155.667 96.8 155.4 96 157H118Z" fill="white" stroke="white" stroke-width="0.5"/>
<path d="M116 35.5C121.5 36.5 144 50.5 146.5 57.5C149 64.5 147.5 92.9999 146.5 97C145.5 101 133.5 112 129 114C125.5 117 111.5 115.5 106 114C101 112 102.9 100.2 102.5 97C102.1 93.8 85.9996 80.9999 83.4996 76.5C80.9996 72 82.9994 60 85.9996 57.5C88.9998 55 106 55 106 55C108.166 52.8333 112.6 48.1 113 46.5C113.4 44.9 110.5 34.5 116 35.5Z" fill="#826329"/>
<path d="M46.5002 30C41.5 31 36 39 31.0002 47C26.0003 55 20.5002 72.5 20.5002 72.5C20.5002 72.5 19.0002 86 20.5002 93C22.0002 100 26.0002 105.5 28.5002 109.5C31.0002 113.5 44.5002 118.5 44.5002 118.5C44.5002 118.5 56.0002 120.5 58.5002 115.5C61.0002 110.5 55.6002 102.9 54.0002 98.5C52.4002 94.1 46.5002 79 46.5002 75C46.5002 71 51.5002 62 54.0002 58C56.5002 54 67.0002 47 67.0002 47C67.0002 47 67.0002 35.5 64.0002 33C61.0002 30.5 51.5003 29 46.5002 30Z" fill="#227A2B"/>
<path d="M67 11C67.9999 9.5 77 7.5 79.5 6C82 4.5 87.5 4 89.5 4C91.5 4 96.5 4 98 4C99.5 4 103.5 4 105 6C106.5 8 110 9.5 111.5 11C113 12.5 113 17.5 113 17.5C112.167 19.3333 111 22 109.5 23C108 24 102.5 26 101.5 27.5C100.5 29 98 33.5 98 33.5C96.6667 34.6667 93.8 37 93 37H89.5C89.5 37 85.0001 35 84 33.5C82.9999 32 82.3 27.1 81.5 27.5C80.7 27.9 74.0001 24.5 72 23C69.9999 21.5 66 17 66 17C66 17 66.0001 12.5 67 11Z" fill="white"/>
<path d="M105 17.1707C105 20.7605 99.9854 25.1707 97.5001 25.1707C95.0148 25.1707 97.5 21.1707 97.5 18.1707C98.0001 14.5 95.5148 8.17065 98.0001 8.17065C100.485 8.17065 105.5 12.1707 105 17.1707Z" fill="#A2E5F4"/>
<path d="M91 24.9999C91 28.0375 85.0376 22.9999 82 22.9999C78.9625 22.9999 71.9999 16.5999 73.5 14.4999C76 10.9999 84 8.5 85 10.4999C85 16.9999 92 14.4999 91 24.9999Z" fill="#81CCD6"/>
<path d="M129.5 53.0001C129.5 53.0001 138.5 63.0002 139 65.5001C139.5 68 138 85.0002 137 87.0001C136 89 129.5 102 126.5 104C123.5 106 118 106 117 104C116 102 123 89 124.5 87.0001C125.999 85.0002 126.5 76.5 126.5 74.0001C126.5 71.5002 121.5 57.5001 121.5 57.5001C121.5 57.5001 118.5 48.5001 121.5 47.5001C124.5 46.5001 129.5 53.0001 129.5 53.0001Z" fill="#704F0E"/>
<path d="M111.5 71.0002C111.5 74.59 106.265 80.5031 102.675 80.5031C99.085 80.5031 93.5 70.5899 93.5 67.0001C93.5 63.4102 99.085 64.5 102.675 64.5C106.265 64.5 111.5 67.4103 111.5 71.0002Z" fill="#764D10"/>
</svg>
