<svg width="64" height="400" viewBox="0 0 161 993" fill="none" xmlns="http://www.w3.org/2000/svg">
<path d="M94 887.399L128 902.899H142.75M94 887.399V549.899M94 887.399L70 933.899H57.5M157.5 902.899H142.75M94 549.899C94 549.899 94 331.899 94 280.899L72 258.899C72 258.899 72 170.399 72 124.899C72 79.3993 144.5 -4.60075 157.5 5.89926M94 549.899L5 638.899V933.899H17.5M57.5 933.899C64.3888 945.911 66.8819 958.97 70 988.399H5C7.80505 955.336 11.1067 946.607 17.5 933.899M57.5 933.899H17.5M142.75 902.899C137.833 910.566 128 933.799 128 965.399H157.5" stroke="white" stroke-width="8"/>
</svg>
