<svg width="64" height="400" viewBox="0 0 161 992" fill="none" xmlns="http://www.w3.org/2000/svg">
<path d="M67 887L33 902.5H18.25M67 887V549.5M67 887L91 933.5H103.5M3.5 902.5H18.25M67 549.5C67 549.5 67 331.5 67 280.5L89 258.5C89 258.5 89 170 89 124.5C89 79.0001 16.5 -4.99998 3.5 5.50003M67 549.5L156 638.5V933.5H143.5M103.5 933.5C96.6112 945.512 94.1181 958.571 91 988H156C153.195 954.937 149.893 946.208 143.5 933.5M103.5 933.5H143.5M18.25 902.5C23.1667 910.167 33 933.4 33 965H3.5" stroke="white" stroke-width="8"/>
</svg>
