<svg width="41" height="57" viewBox="0 0 41 57" fill="none" xmlns="http://www.w3.org/2000/svg">
<path d="M15 28.5H1M16.5 28.5L12.5 19.5" stroke="white" stroke-width="2" stroke-linecap="round"/>
<path d="M15 29H1M16.5 29L12.5 37" stroke="white" stroke-width="2" stroke-linecap="round"/>
<path d="M18 25.5H23V31.5H18V25.5Z" fill="white" stroke="white" stroke-width="2" stroke-linecap="round"/>
<rect x="23.5" y="22" width="17" height="13" rx="4" fill="white"/>
<rect x="31" y="20" width="3" height="3" rx="1" fill="white"/>
<rect x="31" y="34" width="3" height="3" rx="1" fill="white"/>
<rect x="28" y="19" width="9" height="2" rx="1" fill="white"/>
<rect width="9" height="2" rx="1" transform="matrix(1 0 0 -1 28 38)" fill="white"/>
<rect x="29" width="3" height="19" fill="white"/>
<rect width="3" height="19" transform="matrix(1 0 0 -1 29 57)" fill="white"/>
<rect x="33" width="3" height="19" fill="white"/>
<rect width="3" height="19" transform="matrix(1 0 0 -1 33 57)" fill="white"/>
</svg>
